# xmcd
#
# Track frame offsets: 
#        150
#        13202
#        25260
#        37210
#        53365
#        65872
#        77492
#        87252
#        98337
#        110000
#        122092
#        135575
#        146967
#        160652
#
# Disc length: 2301 seconds
#
# Revision: 1
# Processed by: cddbd v1.5PL3 Copyright (c) Steve Scherf et al.
# Submitted via: ExactAudioCopy v0.95a5
#
DISCID=b908fb0e
DTITLE=John Lee Hooker - The Collection
DYEAR=1996
DGENRE=Blues
TTITLE0=Baby Lee
TTITLE1=Crawlin' Kingsnake
TTITLE2=Whiskey and Wimmen
TTITLE3=When My First Wife Left Me
TTITLE4=I'm So Excited
TTITLE5=Hard Headed Woman
TTITLE6=Onions
TTITLE7=Big Fine Woman
TTITLE8=Little Wheel
TTITLE9=Everybody Rockin'
TTITLE10=Trouble Blues
TTITLE11=Boom Boom
TTITLE12=The Road Is So Rough
TTITLE13=I'm A Stranger
EXTD=
EXTT0=
EXTT1=
EXTT2=
EXTT3=
EXTT4=
EXTT5=
EXTT6=
EXTT7=
EXTT8=
EXTT9=
EXTT10=
EXTT11=
EXTT12=
EXTT13=
PLAYORDER=
